<?xml version="1.0" encoding="UTF-8"?>
<!DOCTYPE svg PUBLIC "-//W3C//DTD SVG 1.1//EN" "http://www.w3.org/Graphics/SVG/1.1/DTD/svg11.dtd">
<!-- Creator: CorelDRAW X8 -->
<svg xmlns="http://www.w3.org/2000/svg" xml:space="preserve" width="10cm" height="2.12615cm" version="1.1" style="shape-rendering:geometricPrecision; text-rendering:geometricPrecision; image-rendering:optimizeQuality; fill-rule:evenodd; clip-rule:evenodd"
viewBox="0 0 2594 551"
 xmlns:xlink="http://www.w3.org/1999/xlink">
 <defs>
  <style type="text/css">
   <![CDATA[
    .fil0 {fill:#ED3237}
   ]]>
  </style>
 </defs>
 <g id="Camada_x0020_1">
  <metadata id="CorelCorpID_0Corel-Layer"/>
  <path class="fil0" d="M276 551c152,0 275,-123 275,-275 0,-152 -123,-276 -275,-276 -152,0 -276,124 -276,276 0,152 124,275 276,275zm0 -539c-146,0 -264,118 -264,264 0,145 118,263 264,263 145,0 263,-118 263,-263 0,-146 -118,-264 -263,-264zm138 371l0 0c-1,-5 -3,-9 -6,-13 -6,-7 -15,-12 -24,-11 -3,0 -5,1 -7,2 -13,5 -27,4 -38,-2l-24 -14 0 117 -20 0 0 -128 -20 -12 -21 12 0 128 -19 0 0 -117 -24 14c-11,6 -26,7 -38,2 -11,-5 -23,0 -31,9 -3,3 -5,7 -6,11 0,1 -1,1 -1,2l-77 18c-1,1 -1,0 0,-1 17,-19 36,-38 54,-58 13,5 30,-1 36,-14 1,-2 2,-5 2,-7 1,-14 9,-25 21,-32l23 -14 -101 -58 10 -17 111 64 21 -12 0 -24 -111 -64 10 -17 101 59 0 -27c0,-14 6,-27 17,-34 10,-7 11,-21 8,-32 -2,-4 -4,-8 -7,-11 -1,0 -1,-1 -2,-1l23 -76c1,-2 1,-2 1,0 8,25 16,51 23,76 -10,9 -13,27 -5,38 1,2 3,4 5,6 11,7 17,20 17,34l0 27 101 -59 10 17 -111 64 0 24 21 12 110 -64 10 17 -101 58 24 14c11,7 19,18 21,32 1,12 12,20 23,22 4,1 8,1 13,0 0,0 1,0 2,-1l54 58c1,1 1,1 -1,1 -25,-6 -51,-12 -77,-18zm-179 -84l0 0 0 23 -34 19c-9,6 -22,3 -28,-7 -6,-10 -2,-22 8,-28l33 -19 21 12zm40 -141l0 0c11,0 20,9 20,21l0 38 -20 12 -21 -12 0 -38c0,-12 9,-21 21,-21zm20 106l0 0 0 23 -20 12 -21 -12 0 -23 21 -12 20 12zm20 58l0 0 0 -23 21 -12 33 19c10,6 13,18 8,28 -6,10 -19,13 -29,7l-33 -19zm-21 -267l0 0c114,9 203,105 203,221 0,32 -7,65 -21,94l22 25 0 0c3,4 5,6 3,11 -3,4 -6,4 -11,3l0 0 -32 -7c-42,60 -109,95 -182,95 -73,0 -141,-35 -182,-95l-35 7 0 0c-4,1 -8,1 -10,-3 -3,-5 0,-7 2,-11l0 0 24 -26c-14,-29 -21,-61 -21,-93 0,-115 88,-211 202,-221l11 -33 0 0c1,-4 3,-8 8,-7 5,-1 6,3 8,7l0 0 11 33z"/>
  <path class="fil0" d="M1975 44l0 462 95 0 0 -194 83 0 0 194 95 0 0 -462 -95 0 0 184 -83 0 0 -184 -95 0zm-736 0l0 0 0 462 87 0 0 -293 51 293 59 0 52 -293 0 293 87 0 0 -462 -130 0 -38 222 -38 -222 -130 0zm-549 0l0 0 58 207 59 -207 94 0 -102 311 0 151 -101 0 0 -151 -103 -311 95 0zm350 105l0 0 23 163 -47 0 24 -163zm63 -105l0 0 -126 0 -83 462 94 0 16 -110 71 0 16 110 95 0 -83 -462zm672 105l0 0 23 163 -47 0 24 -163zm63 -105l0 0 -126 0 -83 462 94 0 16 -110 71 0 16 110 95 0 -83 -462zm609 105l0 0 24 163 -47 0 23 -163zm64 -105l0 0 -127 0 -83 462 95 0 16 -110 71 0 16 110 95 0 -83 -462z"/>
 </g>
</svg>
