<?xml version="1.0" encoding="UTF-8"?>
<!DOCTYPE svg PUBLIC "-//W3C//DTD SVG 1.1//EN" "http://www.w3.org/Graphics/SVG/1.1/DTD/svg11.dtd">
<!-- Creator: CorelDRAW X8 -->
<svg xmlns="http://www.w3.org/2000/svg" xml:space="preserve" width="10cm" height="2.12431cm" version="1.1" style="shape-rendering:geometricPrecision; text-rendering:geometricPrecision; image-rendering:optimizeQuality; fill-rule:evenodd; clip-rule:evenodd"
viewBox="0 0 43352 9209"
 xmlns:xlink="http://www.w3.org/1999/xlink">
 <defs>
  <style type="text/css">
   <![CDATA[
    .fil1 {fill:#FFCC00}
    .fil0 {fill:white}
    .fil4 {fill:#FEFEFE;fill-rule:nonzero}
    .fil2 {fill:#FFCC00;fill-rule:nonzero}
    .fil3 {fill:white;fill-rule:nonzero}
   ]]>
  </style>
 </defs>
 <g id="Capa_x0020_1">
  <metadata id="CorelCorpID_0Corel-Layer"/>
  <path class="fil0" d="M15494 7047c0,104 -85,188 -188,188 -103,0 -188,-84 -188,-188l0 -564c0,-103 85,-188 188,-188 103,0 188,85 188,188l0 564zm-1889 1118l9 0 0 -832 0 -2 0 -2 0 -585 0 -872c0,-389 316,-705 705,-705 386,0 699,309 705,694 -487,126 -846,570 -846,1097l0 1119c0,625 505,1133 1128,1133 623,0 1128,-508 1128,-1133l0 -1119c0,-561 -407,-1028 -941,-1117 -16,-634 -536,-1144 -1174,-1144 -649,0 -1175,526 -1175,1175l0 1099 0 358 0 2 0 178 -249 0 -296 0 -9287 0c-856,0 -1756,-445 -2092,-1268 -80,-196 -122,-403 -122,-614 0,-101 11,-201 32,-299 182,-865 1065,-1476 1899,-1609 160,-26 275,-161 275,-323 0,-633 618,-1160 1235,-1160 249,0 607,100 821,226 144,86 327,50 428,-84 457,-608 1303,-1004 2062,-1004 1013,0 2038,663 2301,1668 38,147 59,299 59,450 0,143 86,263 220,310 756,259 1473,986 1473,1825 0,450 -192,868 -502,1190 -93,96 -118,231 -66,354 52,123 167,199 301,199l411 0c105,0 195,-44 259,-127 362,-468 566,-1024 566,-1616 0,-1131 -736,-2106 -1739,-2570 -31,-242 -95,-480 -189,-706 -510,-1222 -1798,-1945 -3094,-1945 -919,0 -1839,349 -2484,1006 -264,-97 -546,-145 -827,-145 -996,0 -1948,636 -2159,1612 -1246,345 -2250,1408 -2250,2748 0,357 74,707 216,1035 504,1158 1733,1816 2966,1816l9694 0c6,0 12,-1 18,-3 14,2 28,3 42,3l212 0c175,0 319,-139 327,-313z"/>
  <path class="fil1" d="M15364 6642c0,103 -84,188 -188,188 -103,0 -188,-85 -188,-188l0 -564c0,-104 85,-188 188,-188 104,0 188,84 188,188l0 564zm-1889 1118l9 0 0 -832 0 -2 0 -2 0 -586 0 -871c0,-389 316,-705 705,-705 386,0 700,309 705,693 -487,126 -846,570 -846,1097l0 1119c0,625 505,1133 1128,1133 624,0 1129,-508 1129,-1133l0 -1119c0,-561 -408,-1027 -942,-1116 -16,-635 -536,-1144 -1174,-1144 -648,0 -1175,526 -1175,1175l0 1099 0 358 0 2 0 178 -249 0 -296 0 -9287 0c-856,0 -1756,-446 -2092,-1269 -80,-195 -121,-402 -121,-614 0,-100 10,-200 31,-298 183,-865 1066,-1476 1899,-1610 160,-25 275,-161 275,-322 0,-633 618,-1160 1235,-1160 249,0 608,99 821,226 144,85 327,49 428,-84 458,-608 1303,-1004 2063,-1004 1012,0 2037,662 2300,1668 39,147 59,298 59,450 0,142 86,263 221,309 756,259 1473,986 1473,1825 0,451 -192,868 -503,1190 -93,96 -118,231 -66,355 53,123 167,199 301,199l412 0c104,0 194,-44 258,-127 362,-468 567,-1024 567,-1617 0,-1131 -737,-2106 -1740,-2569 -30,-243 -94,-480 -189,-707 -510,-1221 -1797,-1945 -3093,-1945 -919,0 -1839,349 -2485,1006 -264,-96 -546,-144 -827,-144 -995,0 -1947,635 -2159,1612 -1246,344 -2250,1408 -2250,2747 0,357 74,708 216,1035 505,1158 1734,1817 2966,1817l9694 0c6,0 12,-1 19,-3 13,2 27,3 42,3l212 0c175,0 319,-140 326,-313z"/>
  <path class="fil2" d="M22433 374c-260,0 -410,116 -464,348l-907 3116 -989 -3464 -1050 0 1603 4637 900 0 1588 -4637 -681 0z"/>
  <path class="fil2" d="M19019 4455c-232,0 -382,102 -450,307l-1548 4330 1016 0 307 -948 1793 0 307 948 1002 0 -1663 -4637 -764 0zm211 934l641 1971 -1275 0 634 -1971z"/>
  <path class="fil3" d="M23487 624l0 682 872 0 0 -256c7,-282 -131,-426 -420,-426l-452 0zm0 991l0 3470 872 0 0 -3050c0,-283 -138,-420 -420,-420l-452 0zm1259 3470l886 0 0 -1804c0,-505 243,-761 728,-761l296 0 0 -905 -125 0c-1161,0 -1758,557 -1785,1679l0 1791zm3675 -3280l0 -190 -525 0 0 -551c0,-230 -190,-440 -420,-440l-453 0 0 3792c-6,387 151,590 479,623 328,33 637,33 919,7l0 -663 -269 0c-171,0 -256,-79 -256,-223l0 -1922 92 0c242,0 433,-184 433,-433zm3182 -190l-446 0c-289,0 -427,144 -420,433l0 1830c0,387 -197,577 -591,577 -393,0 -590,-190 -590,-577l0 -2263 -873 0 0 2086c0,584 151,964 453,1155 302,196 623,295 984,295 374,0 715,-92 1024,-269 308,-190 459,-584 459,-1181l0 -2086zm1496 2827c-276,0 -420,-131 -440,-406 0,-256 178,-420 525,-486 256,-52 492,-125 696,-210l0 322c0,492 -296,780 -781,780zm203 -2165c361,0 545,99 565,295 0,191 -191,302 -565,348 -879,85 -1482,309 -1502,1142 0,767 577,1154 1410,1089 939,-66 1516,-492 1516,-1450l0 -1181c-20,-643 -505,-958 -1463,-958 -800,0 -1253,315 -1358,958l872 0c46,-164 217,-243 525,-243zm2323 -1653l-453 0 0 4461 873 0 0 -4035c0,-229 -190,-426 -420,-426z"/>
  <path class="fil3" d="M21824 9089l886 0 0 -1804c0,-505 242,-761 728,-761l295 0 0 -905 -125 0c-1161,0 -1758,557 -1784,1679l0 1791zm3432 -643c-276,0 -420,-131 -440,-406 0,-256 177,-420 525,-486 256,-52 492,-125 695,-210l0 322c0,492 -295,780 -780,780zm203 -2165c361,0 544,99 564,295 0,191 -190,302 -564,348 -879,85 -1483,309 -1503,1142 0,767 578,1154 1411,1089 938,-66 1516,-492 1516,-1450l0 -1181c-20,-643 -506,-958 -1463,-958 -801,0 -1254,315 -1359,958l873 0c46,-164 217,-243 525,-243zm4658 -662l-446 0c-288,0 -426,144 -420,433l0 1830c0,387 -196,577 -590,577 -394,0 -591,-190 -591,-577l0 -2263 -872 0 0 2086c0,584 151,964 453,1155 301,196 623,295 984,295 374,0 715,-92 1023,-269 309,-190 459,-584 459,-1181l0 -2086zm3340 2407l-656 0c-111,0 -210,40 -295,125 -145,164 -322,249 -525,249 -486,7 -728,-341 -728,-1030 0,-689 229,-1036 689,-1036 275,0 459,124 564,361l951 0c-151,-755 -649,-1129 -1489,-1129 -1070,20 -1601,617 -1601,1804 26,1194 564,1798 1614,1798 807,20 1319,-433 1476,-1142zm1575 420c-276,0 -420,-131 -440,-406 0,-256 178,-420 525,-486 256,-52 492,-125 696,-210l0 322c0,492 -295,780 -781,780zm203 -2165c361,0 545,99 565,295 0,191 -191,302 -565,348 -879,85 -1482,309 -1502,1142 0,767 577,1154 1411,1089 938,-66 1515,-492 1515,-1450l0 -1181c-20,-643 -505,-958 -1463,-958 -800,0 -1253,315 -1358,958l873 0c45,-164 216,-243 524,-243zm4698 2808l0 -2040c7,-991 -479,-1483 -1469,-1483 -991,0 -1490,492 -1490,1483l0 2040 886 0 0 -2217c7,-361 203,-538 591,-538 387,0 583,177 603,538l0 1784c0,276 144,414 433,433l446 0zm1838 -3523c-1050,0 -1575,597 -1575,1804 0,1194 525,1798 1575,1798 1049,0 1581,-604 1581,-1798 0,-1207 -532,-1804 -1581,-1804zm0 768c446,0 669,334 669,1010 -7,689 -230,1043 -676,1043 -446,0 -676,-341 -682,-1017 0,-689 229,-1036 689,-1036z"/>
  <polygon class="fil1" points="37105,5011 43162,5011 43162,1575 37105,1575 "/>
  <path class="fil4" d="M37785 3670c-70,0 -104,31 -104,94l0 160 273 0 0 -254 -169 0zm1467 -138l-242 0c-41,0 -77,15 -109,46 -53,61 -118,92 -193,92 -179,2 -268,-126 -268,-379 0,-254 84,-382 254,-382 101,0 169,46 207,133l351 0c-56,-278 -240,-416 -549,-416 -394,8 -589,228 -589,665 9,439 208,662 594,662 297,7 486,-160 544,-421zm739 -906c-387,0 -580,220 -580,665 0,439 193,662 580,662 386,0 582,-223 582,-662 0,-445 -196,-665 -582,-665zm0 283c164,0 246,123 246,372 -2,254 -84,384 -249,384 -164,0 -248,-125 -251,-374 0,-254 85,-382 254,-382zm1280 0c143,0 215,65 222,198l0 817 324 0 0 -812c2,-133 75,-198 217,-198 143,0 215,65 223,198l0 657c0,102 53,152 159,160l167 0 0 -752c2,-364 -179,-546 -544,-546 -164,0 -290,34 -381,104 -92,-72 -218,-109 -382,-109 -365,0 -548,182 -548,546l0 752 326 0 0 -817c2,-133 75,-198 217,-198z"/>
 </g>
</svg>
