<?xml version="1.0" encoding="UTF-8"?>
<!DOCTYPE svg PUBLIC "-//W3C//DTD SVG 1.1//EN" "http://www.w3.org/Graphics/SVG/1.1/DTD/svg11.dtd">
<!-- Creator: CorelDRAW X8 -->
<svg xmlns="http://www.w3.org/2000/svg" xml:space="preserve" width="5.99722cm" height="5.99728cm" version="1.1" style="shape-rendering:geometricPrecision; text-rendering:geometricPrecision; image-rendering:optimizeQuality; fill-rule:evenodd; clip-rule:evenodd"
viewBox="0 0 30874 30875"
 xmlns:xlink="http://www.w3.org/1999/xlink">
 <defs>
  <style type="text/css">
   <![CDATA[
    .fil6 {fill:#FEFEFE;fill-rule:nonzero}
    .fil0 {fill:#F4A333;fill-rule:nonzero}
    .fil5 {fill:#F2D8BE;fill-rule:nonzero}
    .fil1 {fill:#ED9E35;fill-rule:nonzero}
    .fil4 {fill:#E9C1A9;fill-rule:nonzero}
    .fil2 {fill:#DAA98F;fill-rule:nonzero}
    .fil3 {fill:#C94C4E;fill-rule:nonzero}
    .fil7 {fill:#5D453A;fill-rule:nonzero}
    .fil8 {fill:#29988F;fill-rule:nonzero}
   ]]>
  </style>
 </defs>
 <g id="Capa_x0020_1">
  <metadata id="CorelCorpID_0Corel-Layer"/>
  <path class="fil0" d="M30874 15437c0,-8526 -6911,-15437 -15437,-15437 -8526,0 -15437,6911 -15437,15437 0,8526 6911,15437 15437,15437 8526,0 15437,-6911 15437,-15437z"/>
  <path class="fil1" d="M30874 15437c0,-8526 -6911,-15437 -15437,-15437l0 30874c8526,0 15437,-6911 15437,-15437z"/>
  <polygon class="fil2" points="13234,24288 17755,24288 17755,19330 13234,19330 "/>
  <path class="fil3" d="M17726 21968l771 0c1437,370 3008,633 4054,1844 376,435 912,2717 1298,4571 -2413,1570 -5291,2486 -8383,2491l0 -7141c1248,0 2260,-790 2260,-1765z"/>
  <path class="fil3" d="M13205 21968l-769 0c-1436,370 -3010,633 -4056,1844 -378,437 -917,2744 -1304,4604 2410,1555 5280,2459 8361,2459l29 -1 0 -7141c-1249,0 -2261,-790 -2261,-1765z"/>
  <path class="fil4" d="M15494 5146c2195,0 5667,1248 5667,7095 0,3376 -1101,5588 -1581,6200 -441,562 -2922,1762 -4086,1762 0,-5909 0,-15057 0,-15057z"/>
  <path class="fil4" d="M22252 13635c97,-934 -348,-1763 -994,-1852 -646,-89 -1247,597 -1344,1531 -97,934 348,1763 994,1852 646,88 1248,-597 1344,-1531z"/>
  <path class="fil5" d="M15494 5146c-2195,0 -5666,1248 -5666,7095 0,3376 1101,5588 1580,6200 442,562 2922,1762 4086,1762 0,-5909 0,-15057 0,-15057z"/>
  <path class="fil5" d="M8736 13635c-96,-934 349,-1763 994,-1852 646,-89 1248,597 1345,1531 97,934 -348,1763 -994,1852 -646,88 -1248,-597 -1345,-1531z"/>
  <path class="fil6" d="M15494 17997c1024,0 1853,-338 1853,-755l-3705 0c0,417 829,755 1852,755z"/>
  <path class="fil7" d="M20061 12704c236,-603 703,-989 1197,-921 1,0 3,0 4,1 224,-694 305,-1518 -3,-2393 -1634,-4654 222,-5485 222,-5485 0,0 -1807,-80 -3210,1080 967,-1499 1403,-1886 1403,-1886 0,0 -2031,-435 -4207,1789 484,-1209 1064,-1823 1064,-1823 0,0 -4545,34 -6190,3322 -937,1875 -1009,3905 -782,5440 55,-21 112,-37 171,-45 215,-29 424,28 611,150 0,-709 0,-1336 0,-1435 871,-387 1790,-870 1741,-2804 2031,0 3143,0 3143,0l3240 0c0,0 -145,2176 1596,2708 0,907 0,1708 0,2302z"/>
  <path class="fil8" d="M15467 24305c1673,0 3030,-1046 3030,-2337l-776 0c0,973 -1009,1762 -2254,1765 -1246,-3 -2255,-792 -2255,-1765l-776 0c0,1291 1357,2337 3031,2337z"/>
 </g>
</svg>
